<svg version="1.1" id="Layer_1" xmlns="http://www.w3.org/2000/svg" xmlns:xlink="http://www.w3.org/1999/xlink" x="0px" y="0px"
	 width="100%" viewBox="0 0 560 560" enable-background="new 0 0 560 560" xml:space="preserve">
	<rect width="100%" height="100%" fill="#FFFFFF" pacity="1" rx="100px" ry="100px"/>
	<g transform="translate(-20,0)"> <!-- 向左平移20个单位 -->
		<path fill="#000000" opacity="1.000000" stroke="black" stroke-width="3"
			d="
		M166.511887,361.451874 
			C151.733246,343.802338 141.734924,323.998810 135.235138,302.389313 
			C134.323807,299.359467 131.404633,294.649902 135.930267,293.320953 
			C139.917221,292.150177 140.290512,297.568909 141.139313,300.452423 
			C148.263962,324.656097 160.771103,345.661560 178.935806,363.054047 
			C203.367844,386.447388 232.759308,399.511749 266.372864,402.832886 
			C316.414398,407.777252 361.323639,394.370117 401.340607,364.237000 
			C422.352539,348.414825 437.747528,327.831055 450.521240,305.100769 
			C451.984131,302.497620 453.729401,300.045288 455.446564,297.595032 
			C457.439819,294.750793 460.233917,293.953461 463.348267,295.335571 
			C466.536804,296.750641 467.439148,299.613068 466.905273,302.843628 
			C465.915527,308.832764 463.385071,314.325867 460.604431,319.613373 
			C442.834229,353.404144 415.807465,377.632202 381.975067,394.503143 
			C351.422913,409.738281 318.880310,416.823792 284.816132,415.173187 
			C238.569672,412.932220 198.028885,397.362946 166.511887,361.451874 
		z"/>
		<path fill="#000000" opacity="1.000000" stroke="black" stroke-width="3"
			d="
		M454.421417,276.052673 
			C464.252899,273.436493 472.494324,276.331177 480.163513,281.659454 
			C482.224915,283.091644 483.997131,284.845703 485.204865,287.091522 
			C486.662903,289.802795 486.342316,292.360168 483.923889,294.218597 
			C481.464478,296.108551 478.412292,295.885254 476.797821,293.442780 
			C471.471924,285.385529 463.602051,282.829834 454.635590,282.111145 
			C453.158447,281.992737 451.512634,281.498474 451.185883,279.741699 
			C450.792908,277.628571 452.595428,276.989594 454.421417,276.052673 
		z"/>
		<path fill="#000000" opacity="1.000000" stroke="black" stroke-width="3"
			d="
		M124.816856,280.203613 
			C127.826958,273.753143 136.957413,269.674896 142.848892,271.776154 
			C144.244431,272.273865 145.918427,272.645050 146.085175,274.456970 
			C146.254196,276.293732 144.757126,276.994568 143.335388,277.541840 
			C138.546188,279.385284 133.528442,280.569458 128.887695,282.886047 
			C127.039833,283.808502 125.296448,282.931061 124.816856,280.203613 
		z"/>
	</g>
</svg>